HIERARCHY
ROOT Hips
{
  OFFSET -33.9132 29.2015 117.021
  CHANNELS 6 Xposition Yposition Zposition Zrotation Xrotation Yrotation
  JOINT LeftUpLeg
  {
    OFFSET 8.64259 1.95398 -2.38835
    CHANNELS 3 Zrotation Xrotation Yrotation
    JOINT LeftLeg
    {
      OFFSET 43.7702 0 0
      CHANNELS 3 Zrotation Xrotation Yrotation
      JOINT LeftFoot
      {
        OFFSET 40.6238 0 0
        CHANNELS 3 Zrotation Xrotation Yrotation
        JOINT LeftToeBase
        {
          OFFSET 12.7242 0 0
          CHANNELS 3 Zrotation Xrotation Yrotation
          End Site
          {
            OFFSET 0 0 0
          }
        }
      }
    }
  }
  JOINT RightUpLeg
  {
    OFFSET -8.2249 1.95398 -2.59336
    CHANNELS 3 Zrotation Xrotation Yrotation
    JOINT RightLeg
    {
      OFFSET 43.5653 0 0
      CHANNELS 3 Zrotation Xrotation Yrotation
      JOINT RightFoot
      {
        OFFSET 40.6238 0 0
        CHANNELS 3 Zrotation Xrotation Yrotation
        JOINT RightToeBase
        {
          OFFSET 12.7242 0 0
          CHANNELS 3 Zrotation Xrotation Yrotation
          End Site
          {
            OFFSET 0 0 0
          }
        }
      }
    }
  }
  JOINT Spine
  {
    OFFSET 0.165834 0.87714 6.61349
    CHANNELS 3 Zrotation Xrotation Yrotation
    JOINT Spine1
    {
      OFFSET 7.38963 1.71661e-005 0
      CHANNELS 3 Zrotation Xrotation Yrotation
      JOINT Spine2
      {
        OFFSET 11.9445 1.14441e-005 0
        CHANNELS 3 Zrotation Xrotation Yrotation
        JOINT Spine3
        {
          OFFSET 14.7254 4.19617e-005 0
          CHANNELS 3 Zrotation Xrotation Yrotation
          JOINT Spine4
          {
            OFFSET 10.9679 0 0
            CHANNELS 3 Zrotation Xrotation Yrotation
            JOINT RightShoulder
            {
              OFFSET 2.46616 -1.6653 3.69651
              CHANNELS 3 Zrotation Xrotation Yrotation
              JOINT RightArm
              {
                OFFSET 13.0012 0 0
                CHANNELS 3 Zrotation Xrotation Yrotation
                JOINT RightForeArm
                {
                  OFFSET 28.7848 1.62311e-005 0
                  CHANNELS 3 Zrotation Xrotation Yrotation
                  JOINT RightHand
                  {
                    OFFSET 26.5688 1.62095e-005 0
                    CHANNELS 3 Zrotation Xrotation Yrotation
                    End Site
                    {
                      OFFSET 0 0 0
                    }
                  }
                }
              }
            }
            JOINT LeftShoulder
            {
              OFFSET 2.38034 -1.29275 -3.7523
              CHANNELS 3 Zrotation Xrotation Yrotation
              JOINT LeftArm
              {
                OFFSET 16.3182 6.07031e-005 0
                CHANNELS 3 Zrotation Xrotation Yrotation
                JOINT LeftForeArm
                {
                  OFFSET 27.0901 0 0
                  CHANNELS 3 Zrotation Xrotation Yrotation
                  JOINT LeftHand
                  {
                    OFFSET 24.5451 1.51738e-005 0
                    CHANNELS 3 Zrotation Xrotation Yrotation
                    End Site
                    {
                      OFFSET 0 0 0
                    }
                  }
                }
              }
            }
            JOINT Neck
            {
              OFFSET 5.0226 -0.0266342 0
              CHANNELS 3 Zrotation Xrotation Yrotation
              JOINT Head
              {
                OFFSET 6.69364 2.86102e-005 0
                CHANNELS 3 Zrotation Xrotation Yrotation
                End Site
                {
                  OFFSET 0 0 0
                }
              }
            }
          }
        }
      }
    }
  }
}
MOTION
Frames:	9
Frame Time:	0.0416667
-310.189 100.212 -286.918 101.516 -49.1415 97.9943 -174.183 -7.18702 89.6239 -6.66982 1.41327 0.323296 64.8894 3.95354 -0.928872 12.9965 -1.08554 -11.0147 173.346 -2.63467 88.6397 -13.0972 -19.0156 -1.02682 61.0196 -0.329307 -6.4577 26.6706 -1.422 9.1318 -0.035901 8.00318 -90.0642 10.845 -0.10111 -0.118362 -0.825981 -0.106218 -0.113797 -23.3611 -0.0608882 -0.143273 -3.34846 -0.0608696 -0.143278 90.8491 -28.8425 -105.494 48.2224 3.85808 -10.5936 -7.04832 -59.873 -6.72664 -8.00351 1.4977 -28.4008 -90.1301 -52.119 78.9838 -19.4581 -4.40059 -16.7781 -13.9706 24.1504 -0.0251297 1.12961 -0.347443 -22.6959 4.97132 -8.71583 -1.83491 -1.6997 -8.25617 -2.78335 
-310.234 100.187 -286.833 101.445 -49.6628 98.2469 -173.964 -6.94414 89.9345 -6.98153 1.04336 0.243466 65.0843 3.95764 -0.752213 0.395569 1.87559 -21.8561 173.933 -2.6193 89.2071 -13.0727 -18.6753 -1.40049 60.9714 -0.356074 -6.07253 26.4531 -1.34074 9.12433 0.0317344 8.00257 -90.118 10.8631 0.00859611 -0.23549 -0.807822 -0.00174709 -0.235659 -23.3428 0.0789783 -0.22202 -3.33017 0.0789854 -0.222014 90.9136 -28.5175 -105.485 47.0525 4.24045 -11.2185 -7.69621 -63.7975 -7.27571 -0.741885 -0.0566709 -32.7104 -90.1665 -52.6077 79.0318 -19.1724 -4.51349 -16.8444 -13.9739 23.4463 -0.0250093 0.8479 -0.400242 -24.6764 5.12579 -8.52929 -1.26625 -1.62293 -8.18156 -3.55097 
-310.245 100.165 -286.795 101.558 -49.5388 98.3654 -173.932 -6.79396 90.0068 -7.50657 1.13124 0.278677 65.3758 4.00108 -0.778684 20.5328 -2.01032 -3.66614 173.876 -2.90569 89.2035 -12.8001 -18.2245 -1.33026 61.3434 -0.697584 -5.69256 26.0313 -1.17021 9.06239 0.0201948 8.00315 -90.1618 10.8682 -0.0345703 -0.318653 -0.802778 -0.0485833 -0.316827 -23.3376 0.0627864 -0.314314 -3.32498 0.0627843 -0.314325 90.7518 -28.1562 -105.951 44.5986 5.03965 -12.6823 -10.3797 -73.2248 -9.72872 12.8963 -4.93524 -43.7798 -90.3093 -53.4758 79.0047 -18.5124 -4.63952 -16.8203 -13.7979 25.9407 -0.0340321 -1.30266 0.157969 -22.0863 4.97085 -8.38422 -0.615637 -1.20058 -8.17612 -3.91768 
-310.251 100.105 -286.772 101.63 -49.4806 98.3877 -173.968 -6.6577 89.9986 -7.87789 1.108 0.322844 65.4905 3.89498 -1.06512 22.7306 -4.44586 3.24162 173.959 -3.14574 89.2331 -12.6036 -17.3746 -1.43512 61.9898 -1.20917 -4.9508 25.2829 -0.858607 8.92533 0.0218615 8.00425 -90.186 10.8652 -0.042353 -0.365933 -0.805838 -0.0584206 -0.36372 -23.3406 0.0695663 -0.36175 -3.32794 0.0695735 -0.361752 90.6704 -27.9188 -106.209 43.4322 5.26687 -14.03 -16.0332 -80.5634 -15.2084 20.9904 -9.82207 -53.2988 -90.4154 -53.7619 78.9113 -18.3506 -4.52779 -16.8357 -13.8546 26.4422 -0.0435249 -1.08188 0.131503 -21.5351 4.79679 -8.51297 -0.769859 -0.759112 -8.27646 -3.06428 
-310.32 100.032 -286.781 101.231 -49.2902 98.1172 -173.938 -5.94577 90.0652 -8.83234 1.4283 0.292164 66.1336 4.11259 -0.681992 21.8567 -4.41485 2.34919 174.06 -3.35478 89.3241 -11.9446 -16.0887 -1.40794 62.6486 -1.80565 -3.96714 24.8367 -0.695294 8.93125 -0.0106089 7.97744 -90.233 10.9185 -0.128933 -0.451282 -0.752515 -0.148657 -0.445187 -23.287 0.012656 -0.469176 -3.27439 0.0126603 -0.469168 90.7352 -27.3849 -106.284 43.6551 5.17037 -13.9625 -14.7904 -79.559 -13.9897 21.2596 -9.78215 -52.7325 -90.514 -54.4889 78.9198 -17.8218 -4.61554 -16.7175 -13.8635 26.2061 -0.0646734 -1.18329 0.149703 -21.1188 5.17026 -8.35932 0.297668 -1.38729 -8.30879 -3.79975 
-310.359 99.9331 -286.735 101.239 -49.1601 97.8873 -173.826 -5.61169 90.0378 -9.62306 1.62109 0.0739046 66.494 4.14543 -0.87545 22.0115 -4.57367 2.81565 173.671 -3.39737 88.9228 -11.9985 -14.9867 -1.14733 63.9227 -2.77454 -2.70944 23.3479 -0.15189 8.96392 -0.0176718 7.9856 -90.1941 10.9023 -0.124975 -0.374333 -0.768743 -0.141342 -0.368464 -23.3035 -0.00668436 -0.394581 -3.29082 -0.00669786 -0.394581 90.6186 -27.5208 -106.471 46.5116 4.46097 -11.392 -7.86977 -64.6944 -7.41791 3.82806 -1.71614 -35.2607 -90.4222 -54.2312 78.9978 -18.0547 -4.6657 -16.6977 -13.7631 26.8334 -0.0611473 -1.09165 0.156461 -20.4382 4.95847 -8.36178 -0.160945 -1.26688 -8.22871 -3.4405 
-310.498 99.8075 -286.629 101.14 -49.1383 97.8977 -173.702 -4.89474 90.2843 -10.8621 1.83639 0.0467154 66.956 4.11478 -0.956394 22.5273 -4.38186 2.95969 173.737 -3.70809 89.0422 -11.4705 -13.4075 -1.07432 64.9308 -3.58786 -1.12736 22.7226 0.128644 8.80738 -0.00606885 8.00568 -90.2001 10.8622 -0.104547 -0.388218 -0.808819 -0.121532 -0.383244 -23.3435 0.016965 -0.401689 -3.33086 0.0169671 -0.401686 90.6463 -27.3815 -106.469 50.6324 2.94752 -9.77773 -5.9455 -50.266 -5.87864 -14.852 2.38308 -21.7415 -90.2629 -53.6368 79.1044 -18.6368 -4.5721 -16.8136 -13.7325 27.0662 -0.0387204 -3.68907 0.629397 -22.6242 5.05299 -8.27435 -0.112445 -1.17293 -8.15767 -3.66859 
-310.66 99.7243 -286.472 101.212 -49.1445 98.2054 -173.627 -4.44243 90.5855 -11.9098 1.90318 0.208069 67.7178 4.29911 -0.666248 21.9064 -4.5556 2.66331 173.824 -4.45792 89.3079 -10.3072 -11.4035 -0.903061 65.8357 -4.36451 0.864908 21.3158 0.57047 9.08527 0.0207955 8.02718 -90.2371 10.8191 -0.0680313 -0.465136 -0.85196 -0.0884477 -0.461701 -23.3865 0.0749115 -0.464078 -3.37381 0.0748865 -0.464087 90.5564 -27.4962 -106.609 49.9194 3.26806 -9.86345 -5.91202 -49.8652 -5.84826 -7.89451 1.06566 -22.2069 -90.4169 -53.9866 78.9554 -18.2469 -4.82597 -17.0106 -13.7129 26.4679 -0.0413783 1.95767 -0.190751 -18.5063 6.14042 -7.98154 1.00806 -3.04781 -8.01069 -5.58284 
-310.79 99.5772 -286.237 100.896 -49.0947 97.6387 -173.816 -4.02144 90.3586 -12.4678 1.72198 0.292438 67.8938 4.154 -0.85183 20.0832 -3.41093 -1.28062 173.924 -5.28891 89.1758 -8.92331 -9.46556 -1.09324 67.2506 -5.29431 3.03029 19.7238 1.33799 8.57824 0.0180477 7.99218 -90.2007 10.8892 -0.0568082 -0.393869 -0.781821 -0.0740856 -0.390995 -23.3165 0.0641874 -0.39274 -3.30385 0.0642092 -0.392726 90.631 -27.387 -106.498 50.1215 3.24468 -9.63925 -5.8872 -49.584 -5.83076 -7.968 1.05911 -21.8906 -90.6132 -54.2347 78.7262 -17.6669 -3.36874 -16.7657 -14.4303 24.5781 -0.0148873 0.396555 -0.129986 -19.994 6.29315 -7.95377 1.29065 -3.90438 -7.9993 -5.96727 
